<svg xmlns="http://www.w3.org/2000/svg" xmlns:xlink="http://www.w3.org/1999/xlink" viewBox="0 0 465.16 141.65"><defs><style>.cls-1{fill:url(#Gradiente_sem_nome_41);}.cls-2{fill:#00c6d7;}.cls-3{font-size:62.98px;}.cls-3,.cls-6,.cls-7{fill:#212134;}.cls-3,.cls-4,.cls-7{font-family:Archivo-SemiBold, Archivo;font-weight:600;}.cls-4{font-size:63.28px;fill:#fff;}.cls-5{fill:none;stroke:#212134;stroke-miterlimit:10;}.cls-7{font-size:112.4px;}</style><linearGradient id="Gradiente_sem_nome_41" y1="60.71" x2="121.42" y2="60.71" gradientUnits="userSpaceOnUse"><stop offset="0" stop-color="#59297d"></stop><stop offset="1" stop-color="#00c6d7"></stop></linearGradient></defs><g id="Camada_2" data-name="Camada 2"><g id="Camada_1-2" data-name="Camada 1"><g id="_2" data-name="2"><path class="cls-1" d="M24.36,0H97.06a24.36,24.36,0,0,1,24.36,24.36V97.06a24.36,24.36,0,0,1-24.36,24.36H21.26A21.26,21.26,0,0,1,0,100.16V24.36A24.36,24.36,0,0,1,24.36,0Z"></path><path class="cls-2" d="M32.12,0H97.06a24.36,24.36,0,0,1,24.36,24.36v53A28.64,28.64,0,0,1,92.78,106H38.23A22.82,22.82,0,0,1,15.41,83.2V16.71A16.71,16.71,0,0,1,32.12,0Z"></path><text class="cls-3" transform="translate(28.86 76.28)">F5</text><text class="cls-4" transform="translate(29.49 75.66)">F5</text><path class="cls-5" d="M153.23,86.49h16.3a26.86,26.86,0,0,0,9.55-1.57,17.76,17.76,0,0,0,7-4.67,20.36,20.36,0,0,0,4.27-7.75,36.53,36.53,0,0,0,1.46-10.85V59.29a36.92,36.92,0,0,0-1.46-11,20.36,20.36,0,0,0-4.27-7.75,17.76,17.76,0,0,0-7-4.67,26.86,26.86,0,0,0-9.55-1.57h-16.3Z"></path><path class="cls-5" d="M138.61,74.6V21.43c20,1,41-4,58,9,11,10,11,25,10,38-2,13-9,26-23,29-1.07.22-2,.42-3.13.6-14,2.19-21.48,1.13-41.86.94-2,0-5.54,0-10,0"></path><path class="cls-5" d="M219.21,30.74v-13h13.71v13H219.21m0,68.23V39.85h13.71V99Z"></path><path class="cls-5" d="M257.31,119.42a17.84,17.84,0,0,1-7.42-1.57,13.46,13.46,0,0,1-5.62-4.66,13.1,13.1,0,0,1-2.13-7.59A10.55,10.55,0,0,1,245,97.79a19.72,19.72,0,0,1,6.35-4.33,11.89,11.89,0,0,1-4.21-3.6,8.9,8.9,0,0,1-1.63-5.39,8.26,8.26,0,0,1,3.15-6.8,16.22,16.22,0,0,1,7.19-3.32,17.6,17.6,0,0,1-6.35-6.63,19.06,19.06,0,0,1-2.19-9.22,18.58,18.58,0,0,1,3-10.62A19.36,19.36,0,0,1,259,41a34.77,34.77,0,0,1,13.82-2.47,43,43,0,0,1,6.3.45,28,28,0,0,1,5.5,1.35A13.42,13.42,0,0,0,290,35a13.66,13.66,0,0,0,1.57-4.89H305a15.44,15.44,0,0,1-1.52,7,13.61,13.61,0,0,1-4.21,5,18,18,0,0,1-6.52,2.86,16.3,16.3,0,0,1,4.27,6,19.63,19.63,0,0,1,1.46,7.64,19.44,19.44,0,0,1-2.87,10.68,18.62,18.62,0,0,1-8.43,7,33.54,33.54,0,0,1-13.65,2.47h-9.11a5.83,5.83,0,0,0-3.65,1,3.39,3.39,0,0,0-1.29,2.81A3.47,3.47,0,0,0,260.63,85a4.59,4.59,0,0,0,3.31,1.12H289.8a14.82,14.82,0,0,1,15.28,15.4,16.33,16.33,0,0,1-2.64,9.11,18.43,18.43,0,0,1-7.36,6.4,24.27,24.27,0,0,1-11,2.36Zm4.95-9.89H284a9.12,9.12,0,0,0,3.77-.73,6.26,6.26,0,0,0,2.58-2.08,5.1,5.1,0,0,0,1-3,5.25,5.25,0,0,0-1.86-4.39,7.13,7.13,0,0,0-4.55-1.46H262.26a6.48,6.48,0,0,0-4.5,1.63,5.89,5.89,0,0,0-.05,8.43A6.36,6.36,0,0,0,262.26,109.53ZM272.93,69c4,0,6.95-.92,8.94-2.76a9.94,9.94,0,0,0,3-7.7q0-4.94-3-7.64c-2-1.8-5-2.7-8.94-2.7s-6.95.9-8.93,2.7-3,4.35-3,7.64a11.52,11.52,0,0,0,1.29,5.62,8.34,8.34,0,0,0,3.94,3.6A15.69,15.69,0,0,0,272.93,69Z"></path><path class="cls-5" d="M314,30.74v-13h13.71v13ZM314,99V39.85h13.71V99Z"></path><path class="cls-5" d="M357.91,100.32c-3.68,0-6.56-.73-8.66-2.2a11.77,11.77,0,0,1-4.44-5.62,19.74,19.74,0,0,1-1.29-7V51.09h-7.08V39.85h7.42l2.47-16.53h10.9V39.85h10.23V51.09H357.23v33a5,5,0,0,0,1.24,3.65,4.87,4.87,0,0,0,3.71,1.3h5.28v9.44a20.36,20.36,0,0,1-2.75.84c-1.09.26-2.23.49-3.43.67A21.62,21.62,0,0,1,357.91,100.32Z"></path><path class="cls-5" d="M392.75,100.32a30.62,30.62,0,0,1-5.68-.62,20.19,20.19,0,0,1-6.18-2.31,13.14,13.14,0,0,1-4.89-5,17.38,17.38,0,0,1-1.91-8.71,17.56,17.56,0,0,1,2.7-10.06,18.3,18.3,0,0,1,7.59-6.29,40.31,40.31,0,0,1,11.69-3.26,106.78,106.78,0,0,1,14.89-1V58.28a12.55,12.55,0,0,0-.79-4.61,6.2,6.2,0,0,0-2.86-3.2,13,13,0,0,0-6.24-1.18,16.87,16.87,0,0,0-6.52,1,6.84,6.84,0,0,0-3.26,2.47,5.74,5.74,0,0,0-.9,3v1.57H377.13a5.33,5.33,0,0,1-.12-1.12V54.91a13.43,13.43,0,0,1,3-8.77,19.05,19.05,0,0,1,8.43-5.68,36.37,36.37,0,0,1,12.48-2,34.14,34.14,0,0,1,13.32,2.24,16.63,16.63,0,0,1,7.81,6.41,18.84,18.84,0,0,1,2.58,10.12V85.14a3.49,3.49,0,0,0,1.24,3,4.47,4.47,0,0,0,2.7.9h3.59v9.44c-.75.3-1.83.65-3.26,1.07a19.34,19.34,0,0,1-5.28.61,13.7,13.7,0,0,1-5.23-1,10.31,10.31,0,0,1-3.87-2.76,10.56,10.56,0,0,1-2.25-4.27h-.68a22.14,22.14,0,0,1-4.55,4.22,20.45,20.45,0,0,1-6.18,2.86A29.53,29.53,0,0,1,392.75,100.32Zm4.16-11.24a16.57,16.57,0,0,0,6-1,12,12,0,0,0,4.39-2.81A12.21,12.21,0,0,0,410,80.87a16,16,0,0,0,1-5.62v-2.7a77.54,77.54,0,0,0-11.41.79,19.88,19.88,0,0,0-8.32,2.92,7,7,0,0,0-3.09,6.07,6.47,6.47,0,0,0,1,3.54A6.18,6.18,0,0,0,392,88.23,12.28,12.28,0,0,0,396.91,89.08Z"></path><path class="cls-5" d="M461.79,98.93l-14.05,0h-7.67V17.7h13.71V93.83"></path><circle class="cls-6" cx="127.2" cy="98.97" r="1.76"></circle><circle class="cls-6" cx="138.48" cy="76.28" r="1.76"></circle><path class="cls-6" d="M465.16,99a1.76,1.76,0,1,0-1.76,1.76A1.76,1.76,0,0,0,465.16,99Z"></path><text class="cls-7" transform="translate(133.35 96.01)">Digital</text></g></g></g></svg>