<svg xmlns="http://www.w3.org/2000/svg" xmlns:xlink="http://www.w3.org/1999/xlink" viewBox="0 0 300 300"><defs><style>.cls-1{fill:url(#Gradiente_sem_nome);}.cls-2{fill:url(#Gradiente_sem_nome-2);}.cls-3{fill:url(#Gradiente_sem_nome-3);}.cls-4{fill:url(#Gradiente_sem_nome-4);}.cls-5{fill:url(#Gradiente_sem_nome-5);}.cls-6{fill:url(#Gradiente_sem_nome-6);}.cls-7{fill:url(#Gradiente_sem_nome-7);}.cls-8{fill:url(#Gradiente_sem_nome-8);}.cls-9{fill:url(#Gradiente_sem_nome-9);}.cls-10{fill:url(#Gradiente_sem_nome-10);}.cls-11{fill:url(#Gradiente_sem_nome-11);}.cls-12{fill:url(#Gradiente_sem_nome-12);}.cls-13{fill:url(#Gradiente_sem_nome-13);}</style><linearGradient id="Gradiente_sem_nome" x1="84.8" y1="181.59" x2="215.2" y2="181.59" gradientUnits="userSpaceOnUse"><stop offset="0" stop-color="#00ffe3"/><stop offset="0.17" stop-color="#08f3e3"/><stop offset="0.46" stop-color="#1fd3e2"/><stop offset="0.86" stop-color="#43a0e0"/><stop offset="0.97" stop-color="#4e90e0"/></linearGradient><linearGradient id="Gradiente_sem_nome-2" x1="154.56" y1="201.32" x2="203.21" y2="201.32" xlink:href="#Gradiente_sem_nome"/><linearGradient id="Gradiente_sem_nome-3" x1="154.56" y1="190.64" x2="203.3" y2="190.64" xlink:href="#Gradiente_sem_nome"/><linearGradient id="Gradiente_sem_nome-4" x1="166.17" y1="179.97" x2="203.35" y2="179.97" xlink:href="#Gradiente_sem_nome"/><linearGradient id="Gradiente_sem_nome-5" x1="154.55" y1="211.98" x2="190.45" y2="211.98" xlink:href="#Gradiente_sem_nome"/><linearGradient id="Gradiente_sem_nome-6" x1="184.12" y1="155.09" x2="188.32" y2="155.09" xlink:href="#Gradiente_sem_nome"/><linearGradient id="Gradiente_sem_nome-7" x1="174.74" y1="155.09" x2="178.87" y2="155.09" xlink:href="#Gradiente_sem_nome"/><linearGradient id="Gradiente_sem_nome-8" x1="193.58" y1="155.09" x2="197.71" y2="155.09" xlink:href="#Gradiente_sem_nome"/><linearGradient id="Gradiente_sem_nome-9" x1="5.8" y1="195.72" x2="294.2" y2="195.72" xlink:href="#Gradiente_sem_nome"/><linearGradient id="Gradiente_sem_nome-10" x1="5.84" y1="130.62" x2="411.87" y2="130.62" xlink:href="#Gradiente_sem_nome"/><linearGradient id="Gradiente_sem_nome-11" x1="28.72" y1="71.1" x2="54.99" y2="71.1" xlink:href="#Gradiente_sem_nome"/><linearGradient id="Gradiente_sem_nome-12" x1="60.83" y1="71.1" x2="87.1" y2="71.1" xlink:href="#Gradiente_sem_nome"/><linearGradient id="Gradiente_sem_nome-13" x1="92.94" y1="71.1" x2="119.2" y2="71.1" xlink:href="#Gradiente_sem_nome"/></defs><g id="Camada_2" data-name="Camada 2"><path class="cls-1" d="M189.83,107.71c.07.07.13.17.21.19,6.42,1.92,9.24,5.67,9.24,12.32v15a7.64,7.64,0,0,1-.07,1.44,2,2,0,0,1-2.23,1.82,2,2,0,0,1-2-2c0-2.31,0-4.61,0-6.92,0-3.37,0-6.73,0-10.1-.05-4.48-3-7.36-7.46-7.37H116.93c-.47,0-.94,0-1.54.08,0,.58-.08,1.09-.08,1.6,0,5.72,0,11.44,0,17.16,0,4.77-2.52,7.27-7.31,7.28-5.78,0-11.55,0-17.32,0-1.2,0-1.54.36-1.54,1.55q0,50.48,0,101c0,4,2.83,7.19,6.72,7.22,11,.08,21.92,0,33.18,0a57.44,57.44,0,0,1-3.69-7,57,57,0,0,1-1.7-7.78h-2.76c-1.83,0-3.66.06-5.48,0a8.1,8.1,0,0,1-8.06-8.27c0-.19,0-.38,0-.57q0-35.57,0-71.11c0-5.47,3.34-8.77,8.83-8.78,2,0,4-.07,6.06,0,1.32.06,1.93-.13,2.23-1.71a11,11,0,0,1,11-8.8,11.13,11.13,0,0,1,10.84,8.84c.11.51.22,1,.36,1.64h59.56c5.67,0,9,3.27,9,8.94v70.67c0,5.87-3.25,9.14-9.08,9.14H146.43c1.18,5.84-2.31,10-4.71,14.76.65,0,1.11.07,1.56.07h43.86c4.56,0,7.19-2.29,7.8-6.76.22-1.6,1.06-2.37,2.42-2.22s2,1.17,1.87,2.75c-.52,6.17-5.34,10.54-11.74,10.55q-23.22,0-46.45,0a2.43,2.43,0,0,0-2.51,1.33,3.55,3.55,0,0,1-6.33,0,2.27,2.27,0,0,0-2.39-1.27q-16.38,0-32.75,0c-7.5,0-12.24-4.74-12.24-12.25q0-49.91,0-99.81a11.47,11.47,0,0,1,3.56-8.64q9.72-9.55,19.28-19.28c2.06-2.09,4.22-3.9,7.17-4.55Zm21,58.31H146.69v62.74h59.37c3.46,0,4.81-1.34,4.81-4.79V166Zm-99.18,0v1.6q0,28.18,0,56.38a9.13,9.13,0,0,0,.09,1.57,3.37,3.37,0,0,0,3,3.06c3.06.14,6.13,0,9.37,0V226.9q0-20.27,0-40.52a9,9,0,0,1,.09-1.72,2.12,2.12,0,0,1,4.18.08,16.57,16.57,0,0,1,.06,1.73v47.25h4.66V155.94h-4.66v16.6c0,.82,0,1.64,0,2.45a2.12,2.12,0,0,1-4.23.07c-.11-1.77,0-3.55-.06-5.33,0-1.23,0-2.46,0-3.74Zm99.18-4.46v-8.21c0-3.28-1.37-4.66-4.61-4.66h-58.1c-.51,0-1,0-1.46.07v12.8Zm-73.2-5.61v77.79h4.48V155.92ZM92.76,133.75c.25,0,.62.09,1,.09,4.81,0,9.62,0,14.43,0,2.18,0,2.8-.66,2.8-2.89q0-7.22,0-14.43a6.89,6.89,0,0,0-.09-.87Zm49.47,17.73c0-2.36.06-4.61,0-6.85a6.74,6.74,0,0,0-6.09-6.4c-3.44-.34-6.83,1.75-7.33,5.06-.4,2.65-.08,5.42-.08,8.19Zm-18.15-2.79c-3.12,0-6.13-.07-9.14,0a3.28,3.28,0,0,0-3.11,3.1c-.15,3.19,0,6.39,0,9.67h12.3Zm4.81,89.5c.23.53.39,1,.6,1.37,1.35,2.49,2.76,4.94,4,7.46.45.9,1.08.9,1.86.9s1.43,0,1.88-.9c1.28-2.52,2.68-5,4-7.46.22-.4.36-.85.58-1.37Z"/><path class="cls-2" d="M178.85,199.16c7.31,0,14.61,0,21.91.05a3.27,3.27,0,0,1,2.23,1.15,2.12,2.12,0,0,1-.11,2.07,3.65,3.65,0,0,1-2.34,1c-4,.1-8.07,0-12.11,0q-15.35,0-30.7,0a5.65,5.65,0,0,1-1.7-.16,2,2,0,0,1-1.44-2.34,2,2,0,0,1,1.93-1.81,11,11,0,0,1,1.15,0Z"/><path class="cls-3" d="M178.92,188.48H200.1a9.41,9.41,0,0,1,1.3,0,2.14,2.14,0,0,1,.22,4.22,5,5,0,0,1-1.29.08h-42.8a5,5,0,0,1-1.29-.07,2,2,0,0,1-1.68-2.2,2,2,0,0,1,1.87-2,8.07,8.07,0,0,1,1.3,0Z"/><path class="cls-4" d="M184.63,177.81c5.38,0,10.75,0,16.13,0,2,0,3.2,1.58,2.27,3.05a2.87,2.87,0,0,1-2.06,1.21c-10.8.08-21.6.06-32.4,0a2.17,2.17,0,0,1-2.4-2.13c0-1.31.92-2.18,2.47-2.18C174,177.8,179.3,177.81,184.63,177.81Z"/><path class="cls-5" d="M172.57,209.82H187.7c1.81,0,2.77.78,2.75,2.18s-1,2.14-2.68,2.14q-15.27,0-30.54,0c-1.87,0-2.93-1-2.63-2.56s1.26-1.77,2.56-1.77C162.3,209.83,167.43,209.82,172.57,209.82Z"/><path class="cls-6" d="M186.18,153a2.14,2.14,0,0,1,2.14,2.07,2.1,2.1,0,0,1-4.2.09A2.15,2.15,0,0,1,186.18,153Z"/><path class="cls-7" d="M176.85,153a2.09,2.09,0,0,1,2,2.17,2.07,2.07,0,0,1-2.21,2,2.07,2.07,0,0,1,.19-4.14Z"/><path class="cls-8" d="M197.71,155.06a2,2,0,0,1-2.06,2.1,2.06,2.06,0,0,1-2.07-2,2.1,2.1,0,0,1,2-2.18A2,2,0,0,1,197.71,155.06Z"/><path class="cls-9" d="M294.2,252.69c-.23.69-.51,1.37-.69,2.08a23.25,23.25,0,0,1-21.4,17.75c-1.4.09-2.81.13-4.22.13q-118,0-235.92,0c-6.8,0-13-1.27-18.23-6a22.69,22.69,0,0,1-7.85-16.84c-.15-6.19-.07-12.39,0-18.58,0-2.92,1.62-4.72,4.05-4.8s4.28,1.79,4.3,4.82c0,5.82,0,11.63,0,17.45,0,8.62,5.69,14.7,14.3,15.45,1.21.1,2.43.1,3.65.1q117.83,0,235.64,0a32.17,32.17,0,0,0,6.44-.48,14.9,14.9,0,0,0,11.49-13.64c.06-1.13,0-2.25,0-3.38V125.76c0-.84,0-1.69,0-2.53.12-2.27,1.11-3.69,3-4.27s3.46.17,4.68,1.69c.22.28.48.54.72.8Z"/><path class="cls-10" d="M293.76,63.88c-3.17-12.66-11.47-19.2-24.47-19.21q-58.58,0-117.14,0c-.76,0-1.51,0-2.26,0-2.44.22-3.89,1.66-4,3.91s1.34,4,3.9,4.27a29.12,29.12,0,0,0,3.37.1H268.37a39.4,39.4,0,0,1,4.21.16,14.71,14.71,0,0,1,13.15,14.18c.15,6.76,0,13.52.08,20.28,0,1.54-.41,2.15-2,2.14-13.78,0-63.54-.06-77.32,0H18.06a13.61,13.61,0,0,0-1.69,0c-1.79.23-2.2-.62-2.18-2.28.09-6.67,0-13.33.07-20a14.48,14.48,0,0,1,10-13.57A24,24,0,0,1,31.23,53q48.85-.08,97.71,0a21.12,21.12,0,0,0,3.65-.2,4.06,4.06,0,0,0-.15-8,15.35,15.35,0,0,0-2.25-.1q-50.13,0-100.25,0a26.07,26.07,0,0,0-5.59.48C13.17,47.6,5.86,57,5.85,68.85q0,71,0,141.93a16.2,16.2,0,0,0,0,2A4.24,4.24,0,0,0,10,216.59a4.23,4.23,0,0,0,4.14-3.86,23.88,23.88,0,0,0,.05-2.81V102.07c0-4,0-4,4-4H270.56c3.85,0,7.7,0,11.55,0,4.32,0,3.6-.25,3.67,3.54,0,1.13-.06,2.26,0,3.38a4,4,0,0,0,2.95,3.72,4,4,0,0,0,4.33-1.23c.38-.39.73-.81,1.1-1.21V64.57A2.59,2.59,0,0,1,293.76,63.88Z"/><path class="cls-11" d="M41.69,57.93A13.18,13.18,0,1,0,55,71,13.18,13.18,0,0,0,41.69,57.93Zm.14,18A4.73,4.73,0,0,1,37.08,71a4.78,4.78,0,0,1,9.56.06A4.74,4.74,0,0,1,41.83,75.9Z"/><path class="cls-12" d="M73.81,57.93A13.18,13.18,0,1,0,87.1,71,13.18,13.18,0,0,0,73.81,57.93Zm.16,18a4.71,4.71,0,0,1-4.77-4.55,4.78,4.78,0,1,1,9.55-.3A4.74,4.74,0,0,1,74,75.9Z"/><path class="cls-13" d="M106.07,57.93A13.18,13.18,0,1,0,119.2,71.21,13.17,13.17,0,0,0,106.07,57.93Zm0,18a4.73,4.73,0,0,1-4.77-4.85,4.78,4.78,0,0,1,9.56,0A4.72,4.72,0,0,1,106.06,75.9Z"/></g></svg>