<svg id="Camada_1" data-name="Camada 1" xmlns="http://www.w3.org/2000/svg" xmlns:xlink="http://www.w3.org/1999/xlink" viewBox="0 0 300 300"><defs><style>.cls-1{fill:url(#Gradiente_sem_nome);}.cls-2{fill:url(#Gradiente_sem_nome-2);}.cls-3{fill:url(#Gradiente_sem_nome-3);}.cls-4{fill:url(#Gradiente_sem_nome-4);}.cls-5{fill:url(#Gradiente_sem_nome-5);}.cls-6{fill:url(#Gradiente_sem_nome_11);}.cls-7{fill:url(#Gradiente_sem_nome-6);}.cls-8{fill:url(#Gradiente_sem_nome_11-3);}.cls-9{fill:url(#Gradiente_sem_nome_11-4);}.cls-10{fill:url(#Gradiente_sem_nome_11-5);}.cls-11{fill:url(#Gradiente_sem_nome_11-6);}.cls-12{fill:url(#Gradiente_sem_nome_11-7);}.cls-13{fill:url(#Gradiente_sem_nome_11-8);}.cls-14{fill:url(#Gradiente_sem_nome_11-9);}.cls-15{fill:url(#Gradiente_sem_nome_11-10);}.cls-16{fill:url(#Gradiente_sem_nome_11-11);}.cls-17{fill:url(#Gradiente_sem_nome_11-12);}.cls-18{fill:url(#Gradiente_sem_nome-7);}.cls-19{fill:url(#Gradiente_sem_nome-8);}.cls-20{fill:url(#Gradiente_sem_nome-10);}.cls-21{fill:url(#Gradiente_sem_nome-11);}.cls-22{fill:url(#Gradiente_sem_nome_11-13);}.cls-23{fill:url(#Gradiente_sem_nome-12);}.cls-24{fill:url(#Gradiente_sem_nome-13);}</style><linearGradient id="Gradiente_sem_nome" x1="5.82" y1="195.78" x2="294.21" y2="195.78" gradientUnits="userSpaceOnUse"><stop offset="0" stop-color="#00ffe3"/><stop offset="0.17" stop-color="#08f3e3"/><stop offset="0.46" stop-color="#1fd3e2"/><stop offset="0.86" stop-color="#43a0e0"/><stop offset="0.97" stop-color="#4e90e0"/></linearGradient><linearGradient id="Gradiente_sem_nome-2" x1="5.85" y1="130.69" x2="411.89" y2="130.69" xlink:href="#Gradiente_sem_nome"/><linearGradient id="Gradiente_sem_nome-3" x1="28.74" y1="71.16" x2="55.01" y2="71.16" xlink:href="#Gradiente_sem_nome"/><linearGradient id="Gradiente_sem_nome-4" x1="60.84" y1="71.16" x2="87.11" y2="71.16" xlink:href="#Gradiente_sem_nome"/><linearGradient id="Gradiente_sem_nome-5" x1="92.95" y1="71.17" x2="119.22" y2="71.17" xlink:href="#Gradiente_sem_nome"/><radialGradient id="Gradiente_sem_nome_11" cx="105.41" cy="231.77" r="5.83" xlink:href="#Gradiente_sem_nome"/><linearGradient id="Gradiente_sem_nome-6" x1="84.87" y1="179.59" x2="214.69" y2="179.59" xlink:href="#Gradiente_sem_nome"/><radialGradient id="Gradiente_sem_nome_11-3" cx="153.15" cy="160.79" r="18.97" xlink:href="#Gradiente_sem_nome"/><radialGradient id="Gradiente_sem_nome_11-4" cx="144.95" cy="170.27" r="13.21" xlink:href="#Gradiente_sem_nome"/><radialGradient id="Gradiente_sem_nome_11-5" cx="184.94" cy="227.03" r="11.18" xlink:href="#Gradiente_sem_nome"/><radialGradient id="Gradiente_sem_nome_11-6" cx="184.94" cy="207.1" r="11.17" xlink:href="#Gradiente_sem_nome"/><radialGradient id="Gradiente_sem_nome_11-7" cx="180.01" cy="217.05" r="7.74" xlink:href="#Gradiente_sem_nome"/><radialGradient id="Gradiente_sem_nome_11-8" cx="190.22" cy="197.17" r="7.5" xlink:href="#Gradiente_sem_nome"/><radialGradient id="Gradiente_sem_nome_11-9" cx="177.9" cy="236.95" r="6.29" xlink:href="#Gradiente_sem_nome"/><radialGradient id="Gradiente_sem_nome_11-10" cx="173.37" cy="170.27" r="4.89" xlink:href="#Gradiente_sem_nome"/><radialGradient id="Gradiente_sem_nome_11-11" cx="173.34" cy="197.18" r="3.27" xlink:href="#Gradiente_sem_nome"/><radialGradient id="Gradiente_sem_nome_11-12" cx="196.73" cy="217.03" r="3.15" xlink:href="#Gradiente_sem_nome"/><linearGradient id="Gradiente_sem_nome-7" x1="97.46" y1="165.53" x2="122.88" y2="165.53" xlink:href="#Gradiente_sem_nome"/><linearGradient id="Gradiente_sem_nome-8" x1="104.05" y1="165.92" x2="116.4" y2="165.92" xlink:href="#Gradiente_sem_nome"/><linearGradient id="Gradiente_sem_nome-10" x1="104.05" y1="165.92" x2="116.4" y2="165.92" xlink:href="#Gradiente_sem_nome"/><linearGradient id="Gradiente_sem_nome-11" x1="97.46" y1="194.94" x2="122.88" y2="194.94" xlink:href="#Gradiente_sem_nome"/><radialGradient id="Gradiente_sem_nome_11-13" cx="110.23" cy="195.33" r="5.46" xlink:href="#Gradiente_sem_nome"/><linearGradient id="Gradiente_sem_nome-12" x1="104.05" y1="195.33" x2="116.4" y2="195.33" xlink:href="#Gradiente_sem_nome"/><linearGradient id="Gradiente_sem_nome-13" x1="104.05" y1="195.33" x2="116.4" y2="195.33" xlink:href="#Gradiente_sem_nome"/></defs><path class="cls-1" d="M294.21,252.75c-.23.69-.51,1.37-.68,2.08a23.25,23.25,0,0,1-21.41,17.75c-1.4.09-2.81.13-4.22.13q-117.94,0-235.91,0c-6.8,0-13-1.27-18.24-6A22.65,22.65,0,0,1,5.91,250c-.16-6.19-.07-12.39,0-18.58,0-2.91,1.61-4.72,4-4.8s4.28,1.79,4.31,4.82c0,5.82,0,11.64,0,17.45.05,8.62,5.68,14.71,14.29,15.45,1.21.1,2.44.11,3.66.11q117.81,0,235.63,0a32.17,32.17,0,0,0,6.44-.48,14.87,14.87,0,0,0,11.49-13.64c.06-1.13,0-2.25,0-3.38q0-60.52,0-121.06c0-.84,0-1.69,0-2.53q.17-3.41,3-4.27c2-.6,3.46.17,4.68,1.7.22.28.48.53.72.8Z"/><path class="cls-2" d="M293.77,63.94c-3.16-12.66-11.46-19.2-24.46-19.21H152.16c-.75,0-1.51,0-2.25,0-2.44.21-3.89,1.66-4,3.9s1.34,4,3.9,4.28a31.72,31.72,0,0,0,3.38.09H268.38a39.59,39.59,0,0,1,4.22.16A14.72,14.72,0,0,1,285.75,67.4c.15,6.75,0,13.51.07,20.27,0,1.54-.41,2.15-2,2.14-13.77,0-63.54-.06-77.31,0H18.07a13.44,13.44,0,0,0-1.68,0c-1.8.23-2.2-.62-2.18-2.28.08-6.67,0-13.33.07-20A14.47,14.47,0,0,1,24.32,54a24,24,0,0,1,6.92-.87Q80.11,53,129,53a21,21,0,0,0,3.64-.2,4.06,4.06,0,0,0-.15-8,15.35,15.35,0,0,0-2.25-.1q-50.11,0-100.25,0a26.12,26.12,0,0,0-5.59.48C13.18,47.66,5.87,57,5.87,68.91q0,71,0,141.93a14.4,14.4,0,0,0,0,2,4.24,4.24,0,0,0,4.14,3.84,4.22,4.22,0,0,0,4.14-3.86,23.88,23.88,0,0,0,.05-2.81V102.13c0-4,0-4,4-4H206.11c9.19,0,55.28,0,64.47,0,3.84,0,7.69,0,11.54,0,4.33,0,3.6-.25,3.67,3.54,0,1.13-.05,2.26,0,3.38a4,4,0,0,0,3,3.72,4,4,0,0,0,4.32-1.23c.39-.39.74-.81,1.1-1.21V64.63A2.87,2.87,0,0,1,293.77,63.94Z"/><path class="cls-3" d="M41.7,58A13.18,13.18,0,1,0,55,71.09,13.17,13.17,0,0,0,41.7,58Zm.14,18a4.74,4.74,0,0,1-4.75-4.87,4.78,4.78,0,0,1,9.56.06A4.73,4.73,0,0,1,41.84,76Z"/><path class="cls-4" d="M73.82,58A13.18,13.18,0,1,0,87.11,71.1,13.18,13.18,0,0,0,73.82,58ZM74,76a4.71,4.71,0,0,1-4.78-4.55,4.78,4.78,0,1,1,9.55-.3A4.74,4.74,0,0,1,74,76Z"/><path class="cls-5" d="M106.09,58a13.18,13.18,0,1,0,13.13,13.28A13.18,13.18,0,0,0,106.09,58Zm0,18a4.74,4.74,0,0,1-4.78-4.85,4.79,4.79,0,0,1,9.57,0A4.74,4.74,0,0,1,106.08,76Z"/><path class="cls-6" d="M105.44,229.55c-1.82,0-3.64,0-5.46,0a2.25,2.25,0,0,0-2.51,2.13A2.29,2.29,0,0,0,100,234q5.46.06,10.92,0a2.22,2.22,0,1,0,0-4.41C109.08,229.53,107.26,229.55,105.44,229.55Z"/><path class="cls-7" d="M158.65,255.34c-3.41-1.31-3.82-4.14-3.47-7.42h-1.92q-21.37,0-42.75,0a7,7,0,0,1-1.9-.16,2.18,2.18,0,0,1,.42-4.25,14.62,14.62,0,0,1,1.48,0H155V234H119.74a5.71,5.71,0,0,1-1.89-.24,2,2,0,0,1-1.31-2.23,2,2,0,0,1,1.77-1.9,9.68,9.68,0,0,1,1.62-.06H155V221.4H89.43c0,.41-.1.83-.1,1.26,0,6.36,0,12.72,0,19.08,0,1.36.41,1.82,1.78,1.77,2.46-.09,4.93,0,7.4,0,1.63,0,2.57.83,2.57,2.19s-1,2.22-2.57,2.23c-2.77,0-5.53.06-8.29,0a5.11,5.11,0,0,1-5.29-5.35c0-5.72,0-11.44,0-17.16q0-51.46,0-102.95A6.2,6.2,0,0,1,86.11,118a5.41,5.41,0,0,1,4.34-1.8c6.37,0,12.73,0,19.09,0a2.9,2.9,0,0,0,2.31-1,37.3,37.3,0,0,1,53.86.09,3.16,3.16,0,0,0,2,.83c6.26.06,12.52,0,18.79,0,4,0,6,1.91,6,6q0,27.36,0,54.73v2.14a24.82,24.82,0,0,0,3,0c3.48-.44,6.12.77,8.46,3.43,2.79,3.18,5.93,6.06,8.95,9a5.59,5.59,0,0,1,1.76,4.22q0,27.21,0,54.43a5.37,5.37,0,0,1-3.36,5.19Zm-5.24-130.23c-.46-.4-.8-.73-1.18-1-10.54-8.36-25.73-5.31-32.62,6.53-1,1.64-2.11,2.13-3.35,1.43s-1.43-1.93-.52-3.59a26.25,26.25,0,0,1,28.81-12.85A26.68,26.68,0,0,1,156.66,122c2.32-1.53,3.25-1.68,4.2-.68s.76,2-1,4.22c.34.51.7,1,1,1.56a20.25,20.25,0,0,1,1,1.79,2.19,2.19,0,0,1-.71,3.1,2.22,2.22,0,0,1-3.15-.95c-.52-.83-1-1.67-1.62-2.65l-8.79,7.86c-.55.5-1.06.86-.69,1.83s1,.92,1.73.92H170c.47,0,.94,0,1.62-.07-1.28-11.89-6.76-21-17.14-26.54-11.91-6.39-23.8-5.61-34.9,2.11-8.38,5.83-12.8,14.13-13.7,24.51h3.78c1.18,0,2.37,0,3.55,0a2.15,2.15,0,0,1,2.37,2.1,2.18,2.18,0,0,1-2.33,2.31c-2.72,0-5.43.07-8.14,0a3.68,3.68,0,0,1-3.7-4.1,36,36,0,0,1,3.13-13.14c.83-1.82,1.8-3.57,2.79-5.52H91.38c-2,0-2.06,0-2.06,2v94.08h65.76a15.29,15.29,0,0,1,.13-2.32,2.06,2.06,0,0,1,2.34-1.79,2,2,0,0,1,2,2,14.62,14.62,0,0,1,0,1.48v34.71h50.57c0-.34.08-.62.08-.91q0-26.92,0-53.84a2.81,2.81,0,0,0-.8-1.76c-3.27-3.35-6.57-6.68-9.95-9.93a3.45,3.45,0,0,0-2.17-.86c-12-.05-24.07,0-36.11,0-.47,0-.95.05-1.52.08,0,.59-.06,1.07-.06,1.55,0,6.31,0,12.62,0,18.93,0,1.64-.85,2.58-2.21,2.57s-2.16-1-2.23-2.58c0-.52,0-1-.07-1.63H129.75a9,9,0,0,1-1.47,0,2.07,2.07,0,0,1-1.86-2,2,2,0,0,1,1.54-2.24,5.75,5.75,0,0,1,1.61-.14H155v-5.06H129.69a8.39,8.39,0,0,1-1.33,0,2.19,2.19,0,0,1-.2-4.32,6,6,0,0,1,1.47-.08h25.5v-3.71c0-4,1.7-5.71,5.79-5.71h27.15V123.42c0-.45,0-.89,0-1.33.09-1.1-.4-1.46-1.48-1.45-3.25,0-6.51,0-9.76,0H170c.21.44.3.7.45.94a37.13,37.13,0,0,1,5.44,16.84c.26,3.42-1.09,5-4.51,5-7.6,0-15.19,0-22.79,0a1.56,1.56,0,0,0-1.77,1.07,8.4,8.4,0,0,1-8.14,5.53,8.57,8.57,0,0,1-8.25-5.61,1.34,1.34,0,0,0-1.51-1c-1.63,0-3.26,0-4.89,0s-2.55-.93-2.52-2.28.92-2.11,2.48-2.14,3.36,0,5-.05a1.77,1.77,0,0,0,1.26-.81c2.45-5.31,7.33-7.16,12.6-4.76a1.45,1.45,0,0,0,1.26-.06C147.25,130.65,150.28,127.91,153.41,125.11ZM138.6,145.6a4.4,4.4,0,0,0,4.5-4.31,4.4,4.4,0,1,0-8.8-.17A4.37,4.37,0,0,0,138.6,145.6Z"/><path class="cls-6" d="M105.44,229.55c1.82,0,3.64,0,5.46,0a2.22,2.22,0,1,1,0,4.41q-5.46.06-10.92,0a2.29,2.29,0,0,1-2.54-2.28,2.25,2.25,0,0,1,2.51-2.13C101.8,229.53,103.62,229.55,105.44,229.55Z"/><path class="cls-8" d="M153.06,163h-23.5a5.31,5.31,0,0,1-1.6-.15,2,2,0,0,1-1.54-2.24,2.08,2.08,0,0,1,1.85-2,7.37,7.37,0,0,1,1.33,0h47.14a9.3,9.3,0,0,1,1.18,0,2.08,2.08,0,0,1,2,2.06,2.06,2.06,0,0,1-1.71,2.26,5.52,5.52,0,0,1-1.47.09Z"/><path class="cls-9" d="M144.89,172.5H129.66a9.3,9.3,0,0,1-1.18,0,2.2,2.2,0,0,1,0-4.39c1.42-.08,2.85,0,4.28,0H161c1.59.05,2.55.93,2.51,2.29a2.21,2.21,0,0,1-2.49,2.14c-3.6,0-7.2,0-10.8,0Z"/><path class="cls-10" d="M185,224.81h12.7c1.86,0,2.89.8,2.89,2.2s-1.08,2.23-2.9,2.23H172.15a6,6,0,0,1-.74,0,2.19,2.19,0,0,1-2.12-2.36,2.11,2.11,0,0,1,2.27-2c4.48,0,9,0,13.44,0Z"/><path class="cls-11" d="M184.85,209.32H172.57a7.28,7.28,0,0,1-1.62-.11,2.16,2.16,0,0,1-.07-4.18,7.43,7.43,0,0,1,1.76-.14H197.2c2.27,0,3.36.71,3.38,2.19s-1.07,2.24-3.31,2.24Z"/><path class="cls-12" d="M180,219.27c-2.71,0-5.41,0-8.12,0-1.62,0-2.57-.84-2.57-2.19s.94-2.23,2.55-2.23q8.19,0,16.38,0a2.22,2.22,0,0,1,2.5,2.28c0,1.3-.94,2.12-2.48,2.14C185.49,219.29,182.73,219.27,180,219.27Z"/><path class="cls-13" d="M190.16,195c2.61,0,5.22,0,7.83,0,1.6,0,2.6.88,2.6,2.19a2.31,2.31,0,0,1-2.59,2.24q-7.83,0-15.65,0a2.23,2.23,0,0,1-2.5-2.29c0-1.31.94-2.11,2.49-2.12C185,194.93,187.55,195,190.16,195Z"/><path class="cls-14" d="M177.87,239.17c-2,0-4,0-6.05,0-1.66,0-2.55-.85-2.53-2.23a2.17,2.17,0,0,1,2.46-2.18q6.19-.06,12.39,0a2.14,2.14,0,0,1,2.38,2.25c0,1.33-.88,2.12-2.46,2.15C182,239.19,179.93,239.17,177.87,239.17Z"/><path class="cls-15" d="M173.34,172.49c-1.39,0-2.77,0-4.14,0a2.21,2.21,0,1,1,0-4.42c2.76,0,5.52,0,8.28,0a2.22,2.22,0,1,1,0,4.42C176.1,172.52,174.72,172.49,173.34,172.49Z"/><path class="cls-16" d="M173.42,195c.64,0,1.28,0,1.91,0a2,2,0,0,1,2.06,2.07,2,2,0,0,1-1.84,2.26,20.23,20.23,0,0,1-4.4,0A2,2,0,0,1,169.3,197a2.05,2.05,0,0,1,2.06-2.07C172,194.92,172.73,195,173.42,195Z"/><path class="cls-17" d="M196.69,219.25a17.2,17.2,0,0,1-1.76,0,2,2,0,0,1-2-2.1,2,2,0,0,1,1.87-2.24,18.06,18.06,0,0,1,3.82,0,2.1,2.1,0,0,1,2,2.17,2.17,2.17,0,0,1-2.12,2.2C197.87,219.29,197.28,219.25,196.69,219.25Z"/><path class="cls-18" d="M110.19,152.83a12.7,12.7,0,1,0,12.69,12.67A12.77,12.77,0,0,0,110.19,152.83Zm-.07,20.95a8.26,8.26,0,1,1,8.32-8.18A8.2,8.2,0,0,1,110.12,173.78Z"/><path class="cls-19" d="M112.4,162.19c-1,1-1.89,2-3.08,3.27a18.33,18.33,0,0,0-1.44-1.72,2.2,2.2,0,1,0-3.12,3.1c.93,1,1.91,2,2.92,2.93a2.23,2.23,0,0,0,3.4,0c1.53-1.46,3-3,4.49-4.5a2.23,2.23,0,0,0,.21-3.28C114.82,161,113.57,161,112.4,162.19Z"/><path class="cls-19" d="M112.4,162.19c-1,1-1.89,2-3.08,3.27a18.33,18.33,0,0,0-1.44-1.72,2.2,2.2,0,1,0-3.12,3.1c.93,1,1.91,2,2.92,2.93a2.23,2.23,0,0,0,3.4,0c1.53-1.46,3-3,4.49-4.5a2.23,2.23,0,0,0,.21-3.28C114.82,161,113.57,161,112.4,162.19Z"/><path class="cls-20" d="M109.32,165.46c1.19-1.27,2.1-2.31,3.08-3.27,1.17-1.15,2.42-1.19,3.38-.2a2.23,2.23,0,0,1-.21,3.28c-1.47,1.53-3,3-4.49,4.5a2.24,2.24,0,0,1-3.4,0c-1-.94-2-1.91-2.92-2.93a2.2,2.2,0,1,1,3.12-3.1A18.33,18.33,0,0,1,109.32,165.46Z"/><path class="cls-21" d="M110.19,182.24a12.7,12.7,0,1,0,.08,25.4,12.7,12.7,0,0,0-.08-25.4Zm-.07,21a8.26,8.26,0,1,1,8.32-8.19A8.2,8.2,0,0,1,110.12,203.2Z"/><path class="cls-22" d="M112.4,191.6c-1,1-1.89,2-3.08,3.27a19.74,19.74,0,0,0-1.44-1.72,2.2,2.2,0,1,0-3.12,3.11c.93,1,1.91,2,2.92,2.93a2.24,2.24,0,0,0,3.4,0c1.53-1.46,3-3,4.49-4.49a2.24,2.24,0,0,0,.21-3.29C114.82,190.41,113.57,190.46,112.4,191.6Z"/><path class="cls-23" d="M112.4,191.6c-1,1-1.89,2-3.08,3.27a19.74,19.74,0,0,0-1.44-1.72,2.2,2.2,0,1,0-3.12,3.11c.93,1,1.91,2,2.92,2.93a2.24,2.24,0,0,0,3.4,0c1.53-1.46,3-3,4.49-4.49a2.24,2.24,0,0,0,.21-3.29C114.82,190.41,113.57,190.46,112.4,191.6Z"/><path class="cls-24" d="M109.32,194.87c1.19-1.27,2.1-2.3,3.08-3.27,1.17-1.14,2.42-1.19,3.38-.2a2.24,2.24,0,0,1-.21,3.29c-1.47,1.52-3,3-4.49,4.49a2.24,2.24,0,0,1-3.4,0c-1-.95-2-1.92-2.92-2.93a2.2,2.2,0,1,1,3.12-3.11A19.74,19.74,0,0,1,109.32,194.87Z"/></svg>