<svg xmlns="http://www.w3.org/2000/svg" xmlns:xlink="http://www.w3.org/1999/xlink" viewBox="0 0 300 300"><defs><style>.cls-1{fill:url(#Gradiente_sem_nome);}.cls-2{fill:url(#Gradiente_sem_nome-2);}.cls-3{fill:url(#Gradiente_sem_nome-3);}.cls-4{fill:url(#Gradiente_sem_nome-4);}.cls-5{fill:url(#Gradiente_sem_nome-5);}.cls-6{fill:url(#Gradiente_sem_nome-6);}</style><linearGradient id="Gradiente_sem_nome" x1="5.25" y1="195.43" x2="294.75" y2="195.43" gradientUnits="userSpaceOnUse"><stop offset="0" stop-color="#00ffe3"/><stop offset="0.17" stop-color="#08f3e3"/><stop offset="0.46" stop-color="#1fd3e2"/><stop offset="0.86" stop-color="#43a0e0"/><stop offset="0.97" stop-color="#4e90e0"/></linearGradient><linearGradient id="Gradiente_sem_nome-2" x1="5.29" y1="130.08" x2="412.87" y2="130.08" xlink:href="#Gradiente_sem_nome"/><linearGradient id="Gradiente_sem_nome-3" x1="28.26" y1="70.33" x2="54.63" y2="70.33" xlink:href="#Gradiente_sem_nome"/><linearGradient id="Gradiente_sem_nome-4" x1="60.49" y1="70.33" x2="86.86" y2="70.33" xlink:href="#Gradiente_sem_nome"/><linearGradient id="Gradiente_sem_nome-5" x1="92.72" y1="70.33" x2="119.08" y2="70.33" xlink:href="#Gradiente_sem_nome"/><linearGradient id="Gradiente_sem_nome-6" x1="81.55" y1="178.14" x2="216.45" y2="178.14" xlink:href="#Gradiente_sem_nome"/></defs><g id="Camada_3" data-name="Camada 3"><path class="cls-1" d="M294.75,252.62c-.23.69-.51,1.37-.69,2.08a23.34,23.34,0,0,1-21.48,17.82c-1.41.09-2.83.13-4.24.13q-118.41,0-236.82,0c-6.82,0-13.08-1.27-18.3-6A22.78,22.78,0,0,1,5.34,249.8c-.15-6.22-.07-12.44,0-18.65,0-2.92,1.62-4.74,4.06-4.82s4.3,1.8,4.32,4.84c.05,5.84,0,11.68,0,17.52,0,8.65,5.7,14.76,14.34,15.51,1.22.1,2.45.1,3.67.1q118.28,0,236.54,0a31.64,31.64,0,0,0,6.46-.49,14.94,14.94,0,0,0,11.54-13.69c.05-1.13,0-2.26,0-3.39V125.2c0-.85,0-1.7,0-2.54.12-2.28,1.12-3.71,3-4.29s3.47.18,4.69,1.7c.23.28.49.54.73.81Z"/><path class="cls-2" d="M294.31,63.08c-3.18-12.7-11.51-19.27-24.56-19.28H152.15c-.75,0-1.51,0-2.26,0-2.45.22-3.9,1.67-4,3.93s1.35,4,3.92,4.29a31.72,31.72,0,0,0,3.38.09H268.82a39.78,39.78,0,0,1,4.23.16,14.77,14.77,0,0,1,13.2,14.24c.15,6.78,0,13.57.08,20.35,0,1.55-.41,2.16-2.05,2.15-13.83,0-63.79-.06-77.61,0H17.56a13.76,13.76,0,0,0-1.7,0c-1.8.23-2.2-.62-2.18-2.29.08-6.69,0-13.38.07-20.07A14.52,14.52,0,0,1,23.82,53.05a24.21,24.21,0,0,1,7-.87q49-.07,98.08,0a21.18,21.18,0,0,0,3.66-.2,4.07,4.07,0,0,0-.15-8,15.42,15.42,0,0,0-2.26-.1q-50.31,0-100.63,0a26.31,26.31,0,0,0-5.61.48C12.65,46.74,5.31,56.13,5.3,68.07q0,71.24,0,142.47a16.32,16.32,0,0,0,0,2,4.25,4.25,0,0,0,4.17,3.85,4.23,4.23,0,0,0,4.15-3.87,24.09,24.09,0,0,0,.05-2.82V101.41c0-4,0-4,4.06-4H282.61c4.34,0,3.62-.25,3.69,3.56,0,1.13-.06,2.27,0,3.39a4.06,4.06,0,0,0,3,3.74,4,4,0,0,0,4.35-1.24c.38-.39.73-.81,1.1-1.22V63.77A2.59,2.59,0,0,1,294.31,63.08Z"/><path class="cls-3" d="M41.28,57.11A13.23,13.23,0,1,0,54.63,70.26,13.22,13.22,0,0,0,41.28,57.11Zm.13,18a4.74,4.74,0,0,1-4.76-4.89,4.8,4.8,0,0,1,9.59.06A4.75,4.75,0,0,1,41.41,75.15Z"/><path class="cls-4" d="M73.52,57.11A13.23,13.23,0,1,0,86.86,70.27,13.22,13.22,0,0,0,73.52,57.11Zm.16,18a4.73,4.73,0,0,1-4.79-4.57,4.79,4.79,0,1,1,9.58-.3A4.75,4.75,0,0,1,73.68,75.15Z"/><path class="cls-5" d="M105.91,57.11a13.23,13.23,0,0,0-.15,26.45,13.23,13.23,0,1,0,.15-26.45Zm0,18a4.76,4.76,0,0,1-4.79-4.87,4.8,4.8,0,0,1,9.6,0A4.75,4.75,0,0,1,105.89,75.15Z"/><path class="cls-6" d="M213.83,102a5.68,5.68,0,0,0-6.58.12,22.59,22.59,0,0,0-4,3.4,45,45,0,0,0-3.66,4.48,3.17,3.17,0,0,1-1.1,1,3.11,3.11,0,0,1-1.62.34c-1.29,0-32.53,0-75.54,0q-15.15,0-30.31,0a23.36,23.36,0,0,0-2.89.18,7.59,7.59,0,0,0-6.28,5.71,14.91,14.91,0,0,0-.31,3.2q0,42.75,0,85.49c0,.45,0,.91,0,1.36a7.79,7.79,0,0,0,8,7.61c3.18,0,6.36,0,9.54,0,.55,0,1.1.05,1.83.09-.45,7.58,2.71,12.64,10.19,14.66-.21.62-.39,1.15-.58,1.68-2.36,6.5-4.69,13-7.12,19.48-.68,1.81-.6,3.3,1,4.54h15a11.15,11.15,0,0,0,1.85-2.5c2.63-7,5.15-14,7.72-21,.81-2.19.3-2.14,3.11-2.14H136c.05.85.11,1.51.12,2.17,0,6.62,0,13.25,0,19.88a3.72,3.72,0,0,0,1.72,3.61h14.31a4.17,4.17,0,0,0,1.48-3.58c-.06-6.63,0-13.26,0-19.89V229.7c2.09,0,4-.07,6,.07.37,0,.79.87,1,1.4,2.64,7.17,5.21,14.36,7.89,21.51a13.25,13.25,0,0,0,1.74,2.62h15c1.79-1.42,2-2.06,1.21-4.23q-3.56-9.84-7.14-19.66c-.21-.57-.37-1.15-.55-1.71a4,4,0,0,1,.59-.33c6.81-2.45,9.22-5.74,9.53-13,0-.48.13-1,.21-1.54,3.9,0,7.64,0,11.38,0a7.63,7.63,0,0,0,7.51-6,14.72,14.72,0,0,0,.18-3q0-36.62,0-73.22a8.76,8.76,0,0,1,.63-3.11c2.14-5.49,4.41-10.94,6.52-16.44a18.72,18.72,0,0,0,1.17-4.94A6.18,6.18,0,0,0,213.83,102ZM116.61,250h-7.09c.16-.58.25-1,.41-1.51,2.11-5.79,4.26-11.57,6.31-17.39a1.93,1.93,0,0,1,2.22-1.52c1.73.08,3.47,0,5.57,0C121.46,236.7,119,243.37,116.61,250Zm31.52,0h-6.49c0-.57-.13-1.11-.13-1.65q0-8.43,0-16.85c0-1.86,0-1.87,1.92-1.89h4.7Zm32-.24c0,.05,0,.11-.09.32-2,0-4.12,0-6.2,0a1.33,1.33,0,0,1-1-.7c-2.35-6.43-4.66-12.88-7-19.32a2.59,2.59,0,0,1,.09-.39c2,0,4.11,0,6.19,0a1.41,1.41,0,0,1,1,.78C175.51,236.91,177.82,243.35,180.14,249.79Zm-4-25.54c-20.66,0-41.33-.09-62,.08-4.91,0-8.75-3.39-7.66-9.42H183.1C184.48,220.11,181.36,224.25,176.1,224.25Zm34.3-113.43c-2.39,6-4.71,12-7.24,18a258.8,258.8,0,0,1-15.72,31.48c-.88,1.45-1.81,2.87-2.81,4.44l-11.09-6.39a13.74,13.74,0,0,1,.62-1.41q4.34-7.43,8.68-14.83c.4-.68.88-1.32,1.28-2a2.7,2.7,0,0,0-.63-3.78,2.59,2.59,0,0,0-3.82.91c-1.92,2.94-3.82,5.91-5.63,8.92a97.27,97.27,0,0,0-8.54,17.19,2.9,2.9,0,0,1-1.22,1.26c-1.42.91-2.89,1.77-4.37,2.58a3.4,3.4,0,0,1-1.7.52A17,17,0,0,0,146,171.8a11.21,11.21,0,0,1-18.11-6,10.77,10.77,0,0,1,3.43-11.12,7.34,7.34,0,0,0,2.84-5.57,6.87,6.87,0,0,0-10.79-5.77,28.58,28.58,0,0,0-2.91,2.61c-.37.35-.68.76-1,1.12a1.51,1.51,0,0,1-2.27.13,1.47,1.47,0,0,1-.1-2.15,34.15,34.15,0,0,1,2.93-3.08,28.1,28.1,0,0,1,9.3-5.55,6.78,6.78,0,0,0,4.82-6.2c.36-5.08-4.53-8.63-9.49-6.81a40.94,40.94,0,0,0-24.21,22.34c-5.29,11.78-5.08,23.64.31,35.4a8.12,8.12,0,0,0,.56,1,2.63,2.63,0,0,0,4.67-2.39c-.87-2.33-2-4.6-2.64-7a36.81,36.81,0,0,1,22.2-44.09c1.81-.7,2.66-.57,3.12.46s-.07,1.78-2,2.54a33.59,33.59,0,0,0-13.32,9.46c-3.36,3.89-2.54,8.6,1.95,11.17l.33.19c-.61,2.82-1.29,5.45-1.74,8.11a22,22,0,0,0,1.13,10.39c.54,1.7,1.93,2.53,3.35,2.1a2.71,2.71,0,0,0,1.71-3.71,20.41,20.41,0,0,1-.18-12.06,19.28,19.28,0,0,1,5.54-8.84,3.28,3.28,0,0,1,1.37-1,1.51,1.51,0,0,1,1.85,2.09c-.16.49-.71.86-1.12,1.25A16.65,16.65,0,0,0,140,179.7a16.93,16.93,0,0,0,9.21-3.62,31.13,31.13,0,0,1,4.2-2.52,8,8,0,0,1,2-.42c-.08.59-.1,1-.18,1.31a12.91,12.91,0,0,0,.38,7.05c.84,2.56.87,4.9-1,7.19a3.66,3.66,0,0,0,1.47,5.49c.39.2.8.34,1.41.59a31.14,31.14,0,0,1-10.18,4.17c-13.54,2.87-25.24-.63-35.09-10.35-.36-.36-.69-.75-1.07-1.1a2.7,2.7,0,0,0-3.69-.14,2.62,2.62,0,0,0-.07,3.81,47.88,47.88,0,0,0,4.53,4.37,42,42,0,0,0,53.79.06,5.78,5.78,0,0,1,2.38-1.17,19.25,19.25,0,0,0,15.42-18.35,2.92,2.92,0,0,1,.55-1.7c6.46-7.73,11.12-16.56,15.67-25.45a52.15,52.15,0,0,1,3.05-5.54v62.41c0,3.09-.7,3.79-3.81,3.79H90.64a12.35,12.35,0,0,1-1.36,0A2.39,2.39,0,0,1,87,207.23c-.05-.57,0-1.14,0-1.71V120.71c0-.57,0-1.14,0-1.7a2.28,2.28,0,0,1,2.42-2.3c.34,0,.68,0,1,0H194.19c-.42.64-.69,1.08-1,1.49-2.25,3.07-4.52,6.13-6.76,9.19a7,7,0,0,0-.82,1.29,2.61,2.61,0,0,0,.88,3.18,2.42,2.42,0,0,0,3.14-.09A9.34,9.34,0,0,0,191,130.2c5.44-7.06,10.85-14.13,16.31-21.18.89-1.14,1.84-2.29,3.55-2.52A6.1,6.1,0,0,1,210.4,110.82Zm-49.82,68.73a8.17,8.17,0,0,1,5.56-9.91,2.59,2.59,0,0,1,1.73.29c3.12,1.74,6.18,3.57,9.29,5.31a1.65,1.65,0,0,1,.93,1.92A14,14,0,0,1,165,189.49c-1.13.07-2.26.06-3.4.06a2.21,2.21,0,0,1-.56-.1c.12-2.27.33-4.44.29-6.61A14.32,14.32,0,0,0,160.58,179.55Zm9.93-14.3.77-2.05,10.2,5.88L180,170.76Z"/></g></svg>