<svg xmlns="http://www.w3.org/2000/svg" xmlns:xlink="http://www.w3.org/1999/xlink" viewBox="0 0 121.42 121.42"><defs><style>.cls-1{fill:url(#Gradiente_sem_nome_41);}.cls-2{fill:#00c6d7;}.cls-3{font-size:62.98px;fill:#212134;}.cls-3,.cls-4{font-family:Archivo-SemiBold, Archivo;font-weight:600;}.cls-4{font-size:63.28px;fill:#fff;}</style><linearGradient id="Gradiente_sem_nome_41" y1="60.71" x2="121.42" y2="60.71" gradientUnits="userSpaceOnUse"><stop offset="0" stop-color="#59297d"></stop><stop offset="1" stop-color="#00c6d7"></stop></linearGradient></defs><g id="Camada_2" data-name="Camada 2"><g id="ARTY_" data-name="ARTY]["><g id="_2" data-name="2"><path class="cls-1" d="M24.36,0H97.06a24.36,24.36,0,0,1,24.36,24.36V97.06a24.36,24.36,0,0,1-24.36,24.36H21.26A21.26,21.26,0,0,1,0,100.16V24.36A24.36,24.36,0,0,1,24.36,0Z"></path><path class="cls-2" d="M32.12,0H97.06a24.36,24.36,0,0,1,24.36,24.36v53A28.64,28.64,0,0,1,92.78,106H38.23A22.82,22.82,0,0,1,15.41,83.2V16.71A16.71,16.71,0,0,1,32.12,0Z"></path><text class="cls-3" transform="translate(28.86 76.28)">F5</text><text class="cls-4" transform="translate(29.49 75.66)">F5</text></g></g></g></svg>